<?xml version="1.0" standalone="no"?>
<!DOCTYPE svg PUBLIC "-//W3C//DTD SVG 20010904//EN"
 "http://www.w3.org/TR/2001/REC-SVG-20010904/DTD/svg10.dtd">
<svg version="1.0" xmlns="http://www.w3.org/2000/svg"
 width="64.000000pt" height="64.000000pt" viewBox="0 0 64.000000 64.000000"
 preserveAspectRatio="xMidYMid meet">

<g transform="translate(0.000000,64.000000) scale(0.100000,-0.100000)"
fill="#000000" stroke="none">
<path d="M290 541 c-5 -11 -10 -54 -10 -96 0 -84 11 -115 40 -115 29 0 40 31
40 115 0 84 -11 115 -40 115 -11 0 -24 -9 -30 -19z"/>
<path d="M166 466 c-91 -91 -71 -251 41 -326 31 -21 48 -25 113 -25 65 0 82 4
113 25 61 41 91 92 95 166 3 50 0 72 -18 108 -26 56 -75 94 -99 79 -26 -16
-24 -36 9 -72 80 -91 30 -228 -87 -238 -136 -12 -204 140 -109 242 29 31 32
45 14 63 -19 19 -35 14 -72 -22z"/>
</g>
</svg>
